# xmcd CD database file
#
# Track frame offsets:
#	150
#	16468
#	35523
#	52469
#	68777
#	87724
#	105540
#	122164
#	142479
#	156902
#	175923
#
# Disc length: 2584 seconds
#
# Revision: 0
# Processed by: cddbd v1.5.1PL2 Copyright (c) Steve Scherf et al.
# Submitted via: CDex 1.40Beta9
#
DISCID=a90a160b
DTITLE=Reagan Boggs - Never Looking Behind
DYEAR=2006
DGENRE=Country
TTITLE0=Share Them With You
TTITLE1=Close at a Distance
TTITLE2=Why Don't You Say It
TTITLE3=Loose Change
TTITLE4=Tear Stained Eye
TTITLE5=Everything Here
TTITLE6=Stars in Our Eyes
TTITLE7=Wrong Last Name
TTITLE8=Jacson
TTITLE9=I Can't Love You Anymore (Then I Already Do)
TTITLE10=The Way I'm Lovin' You
EXTD=YEAR: 2006 ID3G: 2
EXTT0=
EXTT1=
EXTT2=
EXTT3=
EXTT4=
EXTT5=
EXTT6=
EXTT7=
EXTT8=
EXTT9=
EXTT10=
PLAYORDER=
